{"title":"The Smurfs (2011) 1080p BluRay {1920x1080p} {Dual Audio} {6Ch.} ","uid":9381130,"size":3802023961,"categoryP":"video","categoryS":"hd___movies","magnet":"?xt=urn:btih:d17ea6ba39f5a2b533549a7647576f2c18bb25e4&amp;dn=The+Smurfs+%282011%29+1080p+BluRay+%7B1920x1080p%7D+%7BDual+Audio%7D+%7B6Ch.%7D+&amp;tr=udp%3A%2F%2Ftracker.openbittorrent.com%3A80&amp;tr=udp%3A%2F%2Fopen.demonii.com%3A1337&amp;tr=udp%3A%2F%2Ftracker.coppersurfer.tk%3A6969&amp;tr=udp%3A%2F%2Fexodus.desync.com%3A6969","seeders":1,"leechers":0,"uploader":"SaNRiM","files":-1,"time":1387672814,"description":"Storyline\n\nWhen the evil wizard Gargamel chases the tiny blue Smurfs out of their village, they tumble from their magical world and into ours -- in fact, smack dab in the middle of Central Park. Just three apples high and stuck in the Big Apple, the Smurfs must find a way to get back to their village before Gargamel tracks them down\n\n\n\nTorrent Info\n\nGeneral\n\nUnique ID : 171875079319955689746083819553003066804 (0x814DEFAA84312AAF958BFF06E302D5B4)\nComplete name : The Smurfs (2011) 1080p BluRay {Dual Audio} {6Ch.} [Hindi DD 5.1 Original-English DD 5.1] ~SaNRiM~.mkv\nFormat : Matroska\nFormat version : Version 4 / Version 2\nFile size : 3.53 GiB\nDuration : 1h 42mn\nOverall bit rate : 4 913 Kbps\nEncoded date : UTC 2013-12-21 10:47:58\nWriting library : libebml v1.3.0 + libmatroska v1.4.1\n\n\nVideo\nID : 1\nFormat : AVC\nFormat/Info : Advanced Video Codec\nFormat profile : &lt;a class=&quot;__cf_email__&quot; href=&quot;/cdn-cgi/l/email-protection&quot; data-cfemail=&quot;6820010f0028245c4659&quot;&gt;[email&amp;#160;protected]&lt;/a&gt;&lt;script cf-hash='f9e31' type=&quot;text/javascript&quot;&gt;\n/* &lt;![CDATA[ */!function(){try{var t=&quot;currentScript&quot;in document?document.currentScript:function(){for(var t=document.getElementsByTagName(&quot;script&quot;),e=t.length;e--;)if(t[e].getAttribute(&quot;cf-hash&quot;))return t[e]}();if(t&amp;&amp;t.previousSibling){var e,r,n,i,c=t.previousSibling,a=c.getAttribute(&quot;data-cfemail&quot;);if(a){for(e=&quot;&quot;,r=parseInt(a.substr(0,2),16),n=2;a.length-n;n+=2)i=parseInt(a.substr(n,2),16)^r,e+=String.fromCharCode(i);e=document.createTextNode(e),c.parentNode.replaceChild(e,c)}}}catch(u){}}();/* ]]&gt; */&lt;/script&gt;\nFormat settings, CABAC : Yes\nFormat settings, ReFrames : 4 frames\nCodec ID : V_MPEG4/ISO/AVC\nDuration : 1h 42mn\nBit rate : 3 920 Kbps\nWidth : 1 920 pixels\nHeight : 1 080 pixels\nDisplay aspect ratio : 16:9\nFrame rate mode : Constant\nFrame rate : 23.976 fps\nColor space : YUV\nChroma subsampling : 4:2:0\nBit depth : 8 bits\nScan type : Progressive\nBits/(Pixel*Frame) : 0.079\nStream size : 2.81 GiB (80%)\nTitle : ~SaNRiM~\nWriting library : x264 core 130 r2273 b3065e6\nLanguage : English\nDefault : Yes\nForced : No\nColor primaries : BT.709\nTransfer characteristics : BT.709\nMatrix coefficients : BT.709\n\n\nAudio #1\n\nID : 2\nFormat : AC-3\nFormat/Info : Audio Coding 3\nMode extension : CM (complete main)\nFormat settings, Endianness : Big\nCodec ID : A_AC3\nDuration : 1h 42mn\nBit rate mode : Constant\nBit rate : 448 Kbps\nChannel(s) : 6 channels\nChannel positions : Front: L C R, Side: L R, LFE\nSampling rate : 48.0 KHz\nBit depth : 16 bits\nCompression mode : Lossy\nStream size : 329 MiB (9%)\nTitle : ~SaNRiM~\nLanguage : Hindi\nDefault : Yes\nForced : No\n\n\nAudio #2\n\nID : 3\nFormat : AC-3\nFormat/Info : Audio Coding 3\nMode extension : CM (complete main)\nFormat settings, Endianness : Big\nCodec ID : A_AC3\nDuration : 1h 42mn\nBit rate mode : Constant\nBit rate : 448 Kbps\nChannel(s) : 6 channels\nChannel positions : Front: L C R, Side: L R, LFE\nSampling rate : 48.0 KHz\nBit depth : 16 bits\nCompression mode : Lossy\nStream size : 329 MiB (9%)\nTitle : ~SaNRiM~\nLanguage : English\nDefault : No\nForced : No\n\n\n\nScreens\n &lt;a href=&quot;\nhttp://someimage.com/D5HuFab&quot; rel=&quot;nofollow&quot; target=&quot;_NEW&quot;&gt;\nhttp://someimage.com/D5HuFab&lt;/a&gt; &lt;a href=&quot;\nhttp://someimage.com/xTruSeU&quot; rel=&quot;nofollow&quot; target=&quot;_NEW&quot;&gt;\nhttp://someimage.com/xTruSeU&lt;/a&gt; &lt;a href=&quot;\nhttp://someimage.com/HOwqvV2&quot; rel=&quot;nofollow&quot; target=&quot;_NEW&quot;&gt;\nhttp://someimage.com/HOwqvV2&lt;/a&gt; &lt;a href=&quot;\nhttp://someimage.com/KA0MJIn&quot; rel=&quot;nofollow&quot; target=&quot;_NEW&quot;&gt;\nhttp://someimage.com/KA0MJIn&lt;/a&gt; &lt;a href=&quot;\nhttp://someimage.com/Drp7mXr&quot; rel=&quot;nofollow&quot; target=&quot;_NEW&quot;&gt;\nhttp://someimage.com/Drp7mXr&lt;/a&gt; &lt;a href=&quot;\nhttp://someimage.com/SXtfHLz&quot; rel=&quot;nofollow&quot; target=&quot;_NEW&quot;&gt;\nhttp://someimage.com/SXtfHLz&lt;/a&gt; &lt;a href=&quot;\nhttp://someimage.com/pPkXuGd&quot; rel=&quot;nofollow&quot; target=&quot;_NEW&quot;&gt;\nhttp://someimage.com/pPkXuGd&lt;/a&gt; &lt;a href=&quot;\nhttp://someimage.com/Ps6qSW3&quot; rel=&quot;nofollow&quot; target=&quot;_NEW&quot;&gt;\nhttp://someimage.com/Ps6qSW3&lt;/a&gt; &lt;a href=&quot;\nhttp://someimage.com/sugVMwS&quot; rel=&quot;nofollow&quot; target=&quot;_NEW&quot;&gt;\nhttp://someimage.com/sugVMwS&lt;/a&gt; &lt;a href=&quot;\nhttp://someimage.com/ZjaH7tM&quot; rel=&quot;nofollow&quot; target=&quot;_NEW&quot;&gt;\nhttp://someimage.com/ZjaH7tM&lt;/a&gt; &lt;a href=&quot;\nhttp://someimage.com/E4cTKnG&quot; rel=&quot;nofollow&quot; target=&quot;_NEW&quot;&gt;\nhttp://someimage.com/E4cTKnG&lt;/a&gt; &lt;a href=&quot;\nhttp://someimage.com/4UKKcG0&quot; rel=&quot;nofollow&quot; target=&quot;_NEW&quot;&gt;\nhttp://someimage.com/4UKKcG0&lt;/a&gt; &lt;a href=&quot;\nhttp://someimage.com/VsUdN1Z&quot; rel=&quot;nofollow&quot; target=&quot;_NEW&quot;&gt;\nhttp://someimage.com/VsUdN1Z&lt;/a&gt; &lt;a href=&quot;\nhttp://someimage.com/pnIexIL&quot; rel=&quot;nofollow&quot; target=&quot;_NEW&quot;&gt;\nhttp://someimage.com/pnIexIL&lt;/a&gt; &lt;a href=&quot;\nhttp://someimage.com/u2oZWrJ&quot; rel=&quot;nofollow&quot; target=&quot;_NEW&quot;&gt;\nhttp://someimage.com/u2oZWrJ&lt;/a&gt; &lt;a href=&quot;\nhttp://someimage.com/xEgroQ1&quot; rel=&quot;nofollow&quot; target=&quot;_NEW&quot;&gt;\nhttp://someimage.com/xEgroQ1&lt;/a&gt; &lt;a href=&quot;\nhttp://someimage.com/qmSbFCf&quot; rel=&quot;nofollow&quot; target=&quot;_NEW&quot;&gt;\nhttp://someimage.com/qmSbFCf&lt;/a&gt; &lt;a href=&quot;\nhttp://someimage.com/ju4yHDD&quot; rel=&quot;nofollow&quot; target=&quot;_NEW&quot;&gt;\nhttp://someimage.com/ju4yHDD&lt;/a&gt; &lt;a href=&quot;\nhttp://someimage.com/4bfp3ue&quot; rel=&quot;nofollow&quot; target=&quot;_NEW&quot;&gt;\nhttp://someimage.com/4bfp3ue&lt;/a&gt; &lt;a href=&quot;\nhttp://someimage.com/QLNdfTv&quot; rel=&quot;nofollow&quot; target=&quot;_NEW&quot;&gt;\nhttp://someimage.com/QLNdfTv&lt;/a&gt;\n\n\n\n\n                    If you like my work please comment\n                          Any request? Just PM me\n                       Please seed long after download\n                         Thank you &amp; enjoy the best\n                                 ~SaNRiM~ ","torrent":{"xt":"urn:btih:d17ea6ba39f5a2b533549a7647576f2c18bb25e4","amp;dn":"The+Smurfs+%282011%29+1080p+BluRay+%7B1920x1080p%7D+%7BDual+Audio%7D+%7B6Ch.%7D+","amp;tr":["udp%3A%2F%2Ftracker.openbittorrent.com%3A80","udp%3A%2F%2Fopen.demonii.com%3A1337","udp%3A%2F%2Ftracker.coppersurfer.tk%3A6969","udp%3A%2F%2Fexodus.desync.com%3A6969"],"infoHash":"d17ea6ba39f5a2b533549a7647576f2c18bb25e4","infoHashBuffer":{"type":"Buffer","data":[209,126,166,186,57,245,162,181,51,84,154,118,71,87,111,44,24,187,37,228]},"announce":[],"urlList":[]}}